<?xml version="1.0" standalone="no"?>
<!DOCTYPE svg PUBLIC "-//W3C//DTD SVG 20010904//EN"
 "http://www.w3.org/TR/2001/REC-SVG-20010904/DTD/svg10.dtd">
<svg version="1.0" xmlns="http://www.w3.org/2000/svg"
 width="366.000000pt" height="265.000000pt" viewBox="0 0 366.000000 265.000000"
 preserveAspectRatio="xMidYMid meet">

<g transform="translate(0.000000,265.000000) scale(0.100000,-0.100000)"
fill="#000000" stroke="none">
<path d="M0 1325 l0 -1325 1830 0 1830 0 0 1325 0 1325 -1830 0 -1830 0 0
-1325z m2050 1239 c113 -23 193 -51 315 -109 287 -139 508 -387 624 -698 18
-50 19 -58 6 -55 -9 2 -31 39 -50 87 -198 485 -652 778 -1173 758 -454 -16
-843 -267 -1046 -673 -24 -49 -50 -107 -57 -129 -16 -48 -24 -59 -38 -51 -11
7 10 72 60 185 92 205 303 430 519 554 113 65 311 129 453 147 93 11 291 3
387 -16z m1 -115 c333 -66 641 -307 784 -614 56 -118 61 -135 40 -135 -8 0
-18 8 -21 18 -62 185 -246 420 -419 534 -442 293 -1022 238 -1395 -132 -102
-100 -205 -253 -245 -362 -18 -48 -40 -76 -52 -64 -11 10 46 142 100 231 221
364 603 570 1017 548 52 -2 138 -13 191 -24z m-151 -106 c0 -13 -3 -14 -12 -5
-7 7 -22 12 -35 12 -22 0 -23 -4 -23 -65 0 -62 1 -65 24 -65 14 0 28 5 31 10
10 16 25 12 19 -5 -5 -11 -22 -15 -63 -15 l-56 0 0 75 0 75 58 0 c47 0 57 -3
57 -17z m-191 -7 c9 -11 10 -20 1 -35 -7 -13 -7 -21 -1 -21 6 0 15 -9 21 -19
15 -30 -16 -60 -70 -67 l-45 -6 -3 44 c-1 23 -7 57 -11 75 -7 26 -6 33 7 36
38 10 90 6 101 -7z m360 -80 c14 -77 14 -76 -9 -76 -15 0 -20 7 -20 25 0 17
-6 25 -17 26 -16 1 -16 2 0 6 11 3 16 10 13 20 -3 8 -6 19 -6 25 0 6 -6 6 -15
-2 -8 -7 -15 -18 -15 -25 0 -7 -7 -15 -15 -19 -8 -3 -15 -12 -15 -21 0 -8 -7
-15 -15 -15 -9 0 5 24 37 65 29 36 55 62 59 57 3 -4 11 -34 18 -66z m-199 27
c0 -34 -1 -35 -14 -18 -10 15 -11 23 -2 37 15 25 16 23 16 -19z m-353 -27 c-4
-28 -1 -35 24 -50 30 -18 31 -36 1 -36 -9 0 -28 9 -42 20 -29 22 -44 26 -37 8
17 -48 17 -56 -3 -61 -12 -3 -20 0 -20 7 0 7 -11 40 -24 74 l-24 62 46 14 c63
18 86 7 79 -38z m713 19 c0 -2 -13 -33 -30 -69 -28 -63 -42 -77 -55 -57 -9 16
57 140 72 134 7 -3 13 -6 13 -8z m60 -61 c0 -17 -7 -25 -25 -30 -25 -6 -26
-17 -9 -71 2 -7 0 -13 -4 -13 -18 1 -30 19 -36 59 -5 35 -4 42 7 38 20 -7 37
12 37 41 0 21 2 22 15 12 8 -7 15 -23 15 -36z m-947 -68 c51 -35 55 -40 39
-52 -14 -10 -20 -10 -35 4 -15 13 -22 14 -37 4 -27 -16 -38 -15 -15 1 19 15
13 37 -10 37 -13 0 -25 21 -25 46 0 17 -2 18 83 -40z m1026 -37 c-22 -32 -44
-59 -49 -59 -24 0 -17 24 22 79 32 43 46 56 55 49 9 -8 3 -24 -28 -69z m-1215
-15 c9 -3 16 -17 16 -31 0 -18 4 -24 15 -19 50 19 59 -37 14 -88 l-30 -35 -55
57 -54 57 37 33 c20 17 37 32 39 32 1 0 9 -3 18 -6z m1366 -32 c0 -9 -41 -135
-46 -141 -2 -2 -10 2 -18 8 -13 11 -12 18 5 58 10 24 19 51 19 58 0 7 6 16 13
18 19 8 27 8 27 -1z m-1225 -12 c3 -5 1 -10 -4 -10 -6 0 -11 5 -11 10 0 6 2
10 4 10 3 0 8 -4 11 -10z m505 -30 c13 -7 28 -7 46 0 46 18 83 1 159 -70 82
-78 120 -100 169 -100 39 0 62 25 45 51 -16 25 -10 33 11 14 58 -52 -27 -133
-158 -151 -65 -8 -130 13 -199 66 l-53 40 -52 -40 c-58 -43 -124 -70 -173 -70
-116 0 -243 98 -193 148 18 18 30 14 19 -5 -16 -29 5 -53 45 -53 49 0 89 23
164 96 83 80 125 98 170 74z m600 -4 c0 -3 -4 -8 -10 -11 -5 -3 -10 -1 -10 4
0 6 5 11 10 11 6 0 10 -2 10 -4z m-301 -341 c19 -57 8 -293 -19 -404 -48 -198
-144 -301 -279 -301 -53 0 -65 4 -93 29 -29 26 -33 36 -33 78 1 45 29 123 45
123 4 0 10 -20 12 -45 8 -65 31 -95 73 -95 99 0 177 182 191 445 6 104 17 154
42 193 21 32 45 23 61 -23z m-1663 -49 c157 -73 193 -310 70 -459 -65 -80
-243 -153 -309 -128 -24 9 -27 16 -27 59 0 66 26 211 60 339 28 105 28 105 7
98 -12 -3 -40 -9 -63 -12 -36 -5 -45 -1 -78 27 -20 18 -33 37 -29 41 13 13
222 57 273 58 28 1 65 -8 96 -23z m2767 9 c9 -9 18 -43 22 -82 18 -204 27
-271 41 -334 13 -58 18 -68 30 -58 24 20 124 363 124 427 0 27 11 28 35 2 17
-18 17 -23 1 -87 -33 -129 -86 -278 -118 -333 -26 -43 -39 -56 -61 -58 -24 -3
-30 2 -46 40 -11 24 -25 78 -32 121 -6 43 -16 76 -22 74 -5 -1 -20 -47 -33
-100 -39 -160 -83 -225 -139 -203 -20 7 -19 26 9 131 14 50 39 162 56 250 18
88 36 168 41 177 25 47 65 61 92 33z m-1635 -70 c3 -52 -10 -121 -65 -325 -38
-144 -65 -190 -110 -190 -45 0 -49 36 -19 170 15 67 30 129 33 138 10 28 -9 4
-76 -95 -75 -110 -87 -122 -105 -102 -25 26 -37 84 -43 197 -4 75 -10 112 -17
109 -6 -2 -26 -64 -43 -138 -50 -207 -61 -237 -85 -244 -14 -5 -27 0 -42 14
-18 18 -21 32 -19 89 3 142 68 315 143 386 80 75 96 63 110 -80 5 -55 10 -132
10 -172 0 -41 4 -71 9 -68 5 3 24 32 41 64 56 99 181 281 207 302 23 18 29 19
47 7 15 -11 22 -27 24 -62z m1327 63 c39 -18 73 -98 85 -204 15 -136 -11 -364
-41 -364 -14 0 -20 21 -33 122 -9 78 -14 93 -28 92 -10 0 -45 -1 -77 -2 l-60
-2 -37 -70 c-36 -70 -111 -150 -139 -150 -8 0 -15 4 -15 8 0 5 26 55 57 112
53 96 56 104 39 114 -60 36 -82 55 -90 79 -15 42 3 51 55 28 76 -35 83 -31
108 56 30 103 55 150 94 173 37 23 47 24 82 8z m-1996 -57 c73 -52 97 -205 51
-324 -65 -170 -233 -217 -301 -85 -46 90 -44 210 6 309 26 50 94 115 129 123
37 8 85 -2 115 -23z m1361 3 c7 -17 7 -62 0 -132 -20 -209 -21 -237 -11 -252
26 -37 82 46 156 228 54 130 85 173 113 156 25 -16 26 -49 1 -191 -25 -150
-26 -215 -3 -250 19 -30 8 -43 -38 -43 -36 0 -66 40 -74 101 -7 53 -18 63 -30
27 -22 -70 -92 -138 -141 -138 -30 0 -61 35 -74 84 -16 58 -12 234 6 315 25
106 73 154 95 95z m-1590 -639 c23 -67 83 -185 135 -266 174 -269 476 -467
799 -524 113 -19 309 -19 422 0 245 43 473 163 651 342 113 113 198 241 260
390 26 62 53 113 60 113 17 0 18 3 -17 -92 -125 -343 -439 -640 -795 -751
-127 -39 -218 -52 -380 -51 -171 1 -290 23 -437 79 -326 126 -599 402 -723
731 -30 78 -30 87 -8 82 9 -2 23 -24 33 -53z m108 33 c22 -86 152 -298 241
-392 138 -147 355 -268 562 -312 105 -23 342 -25 444 -5 227 45 452 170 604
337 86 94 189 261 220 357 7 21 19 37 28 37 21 0 12 -33 -37 -137 -108 -232
-311 -435 -543 -543 -599 -281 -1301 5 -1547 630 l-20 50 21 0 c13 0 23 -8 27
-22z m568 -139 c-32 -25 -33 -37 -3 -41 18 -2 22 -9 22 -38 0 -29 -4 -36 -23
-38 -57 -8 -71 60 -23 109 16 16 35 29 42 29 6 0 0 -9 -15 -21z m108 5 c20
-20 20 -27 -3 -55 l-18 -23 5 32 c4 27 1 32 -17 32 -23 0 -29 15 -8 23 20 9
25 8 41 -9z m160 0 c20 -20 20 -63 0 -92 -19 -27 -34 -29 -27 -2 4 14 0 20
-10 20 -28 0 -41 38 -22 66 18 28 37 31 59 8z m105 7 c8 -6 11 -18 7 -37 -3
-16 -2 -36 3 -43 11 -17 -3 -51 -20 -51 -6 0 -7 4 -4 10 9 14 -14 52 -26 44
-6 -3 -9 -17 -6 -30 2 -13 0 -24 -5 -24 -15 0 -22 32 -10 51 7 11 8 20 2 24
-14 8 -12 39 2 53 14 14 37 15 57 3z m111 -5 c0 -9 -12 -16 -32 -18 l-33 -3
29 -15 c43 -22 55 -46 33 -67 -15 -15 -17 -15 -12 -2 7 18 -10 35 -40 41 -22
4 -24 40 -4 65 15 18 59 17 59 -1z m344 -2 c19 -19 21 -97 3 -112 -9 -8 -12 3
-12 50 0 42 -4 63 -13 66 -11 3 -13 -10 -10 -62 3 -67 -3 -81 -22 -47 -15 28
-12 73 6 99 18 26 27 27 48 6z m216 -22 c0 -9 -9 -28 -20 -42 l-21 -25 12 27
c14 32 -2 60 -29 52 -14 -5 -14 -3 2 10 22 18 56 5 56 -22z m-478 -37 c3 -59
1 -65 -17 -65 -18 0 -20 5 -17 55 3 41 0 55 -10 55 -10 0 -9 3 2 10 31 20 38
11 42 -55z m123 55 c-3 -5 -17 -10 -31 -10 -33 0 -30 -13 6 -27 22 -8 30 -18
30 -37 0 -32 -18 -43 -22 -14 -2 15 -11 24 -26 26 -50 7 -33 72 19 72 18 0 28
-4 24 -10z m255 -75 c5 -6 3 -18 -4 -28 -16 -21 -26 -22 -26 -2 0 9 -9 15 -25
15 -14 0 -25 5 -25 10 0 6 12 10 26 10 24 0 26 3 21 29 -3 16 -1 33 6 40 9 10
13 4 15 -26 2 -21 7 -42 12 -48z m180 58 c0 -16 3 -45 6 -65 6 -33 4 -38 -12
-38 -17 0 -19 7 -17 62 2 75 1 68 13 68 6 0 10 -12 10 -27z m-1216 -36 c14
-38 -15 -67 -66 -67 l-39 0 3 42 c2 33 8 45 27 54 32 16 64 3 75 -29z m216
-54 c0 -8 -15 -13 -41 -13 -34 0 -39 3 -30 14 14 16 71 16 71 -1z m52 2 c0 -5
-5 -11 -11 -13 -6 -2 -11 4 -11 13 0 9 5 15 11 13 6 -2 11 -8 11 -13z m568 -6
c0 -5 -7 -9 -15 -9 -15 0 -20 12 -9 23 8 8 24 -1 24 -14z m286 11 c8 0 14 -4
14 -10 0 -5 -16 -10 -35 -10 -27 0 -33 3 -28 16 3 8 12 13 20 10 8 -3 21 -6
29 -6z m-586 -10 c12 -8 9 -10 -12 -10 -16 0 -28 5 -28 10 0 13 20 13 40 0z
m210 0 c12 -8 9 -10 -12 -10 -16 0 -28 5 -28 10 0 13 20 13 40 0z m-752 -147
c3 -34 0 -42 -18 -48 -11 -4 -34 -4 -50 0 -27 6 -30 11 -30 44 0 48 5 53 55
49 39 -3 40 -4 43 -45z m159 -10 c-3 -10 -5 -2 -5 17 0 19 2 27 5 18 2 -10 2
-26 0 -35z m173 11 c0 -21 -4 -33 -10 -29 -5 3 -10 19 -10 36 0 16 5 29 10 29
6 0 10 -16 10 -36z m220 -11 c0 -13 -4 -23 -10 -23 -5 0 -10 17 -10 38 0 27 3
33 10 22 5 -8 10 -25 10 -37z m170 12 c0 -28 -4 -35 -19 -35 -25 0 -35 16 -26
38 7 14 9 13 15 -8 8 -23 8 -23 9 8 1 43 21 41 21 -3z m-617 -9 c-4 -17 -10
-22 -24 -19 -10 3 -19 9 -19 14 0 5 7 6 15 3 9 -4 15 0 15 10 0 9 4 16 9 16 4
0 6 -11 4 -24z m84 -8 c-3 -7 -5 -2 -5 12 0 14 2 19 5 13 2 -7 2 -19 0 -25z
m63 6 c0 -8 -4 -14 -10 -14 -5 0 -10 9 -10 21 0 11 5 17 10 14 6 -3 10 -13 10
-21z m44 18 c-7 -4 -14 -16 -16 -27 -3 -17 -5 -15 -10 8 -4 23 -2 27 16 27 13
0 16 -3 10 -8z m66 -12 c0 -11 -2 -20 -4 -20 -2 0 -6 9 -9 20 -3 11 -1 20 4
20 5 0 9 -9 9 -20z m33 -29 c-9 -12 -25 20 -18 36 7 16 9 15 15 -7 4 -14 5
-27 3 -29z m47 23 c0 -14 -4 -23 -9 -20 -5 3 -7 15 -4 26 7 28 13 25 13 -6z
m30 -5 c0 -10 -4 -19 -10 -19 -5 0 -10 12 -10 26 0 14 4 23 10 19 6 -3 10 -15
10 -26z m43 24 c-7 -2 -13 -13 -13 -24 0 -10 -4 -19 -10 -19 -5 0 -10 11 -10
25 0 19 5 25 23 24 12 0 16 -3 10 -6z m67 -5 c0 6 5 12 10 12 6 0 10 -10 10
-23 0 -16 -6 -23 -20 -24 -15 -1 -20 4 -20 25 0 21 2 24 10 12 6 -10 10 -11
10 -2z m179 -10 c1 13 6 20 11 17 15 -9 12 -35 -6 -42 -21 -8 -38 12 -29 34 7
16 9 15 15 -7 8 -25 8 -25 9 -2z m51 -3 c0 -14 -4 -25 -10 -25 -5 0 -10 11
-10 25 0 14 5 25 10 25 6 0 10 -11 10 -25z m30 0 c0 -14 -4 -25 -10 -25 -5 0
-10 11 -10 25 0 14 5 25 10 25 6 0 10 -11 10 -25z m30 -6 c0 -10 -4 -19 -10
-19 -5 0 -10 12 -10 26 0 14 4 23 10 19 6 -3 10 -15 10 -26z m30 -4 c0 -27 -4
-35 -17 -34 -11 0 -13 3 -5 6 6 2 12 18 12 34 0 16 2 29 5 29 3 0 5 -16 5 -35z
m37 -2 c-3 -10 -5 -4 -5 12 0 17 2 24 5 18 2 -7 2 -21 0 -30z m33 11 c0 -8 -4
-14 -10 -14 -5 0 -10 9 -10 21 0 11 5 17 10 14 6 -3 10 -13 10 -21z m50 6 c0
-13 -6 -20 -17 -19 -11 0 -13 3 -5 6 6 2 12 11 12 19 0 8 2 14 5 14 3 0 5 -9
5 -20z m40 1 c0 -11 -4 -23 -10 -26 -6 -4 -10 5 -10 19 0 14 5 26 10 26 6 0
10 -9 10 -19z m17 -18 c-3 -10 -5 -4 -5 12 0 17 2 24 5 18 2 -7 2 -21 0 -30z
m40 5 c-3 -7 -5 -2 -5 12 0 14 2 19 5 13 2 -7 2 -19 0 -25z m60 0 c-3 -7 -5
-2 -5 12 0 14 2 19 5 13 2 -7 2 -19 0 -25z m31 1 c-3 -8 -7 -3 -11 10 -4 17
-3 21 5 13 5 -5 8 -16 6 -23z m-555 -36 c-7 -2 -21 -2 -30 0 -10 3 -4 5 12 5
17 0 24 -2 18 -5z"/>
<path d="M1640 2310 c0 -33 11 -38 30 -15 10 12 10 18 0 30 -19 23 -30 18 -30
-15z"/>
<path d="M1650 2241 c0 -25 4 -31 21 -31 16 0 20 5 17 27 -2 17 -10 29 -20 31
-14 3 -18 -3 -18 -27z"/>
<path d="M1437 2284 c-9 -9 14 -65 26 -61 6 2 15 10 21 19 16 26 -25 63 -47
42z"/>
<path d="M1100 2058 c0 -8 20 -34 45 -58 37 -36 48 -42 55 -31 14 23 -8 54
-34 49 -18 -4 -21 0 -21 21 0 19 -6 27 -22 29 -14 2 -23 -2 -23 -10z"/>
<path d="M326 1538 c-20 -96 -66 -401 -62 -406 11 -10 86 19 128 51 61 46 92
113 96 207 2 48 -2 84 -10 100 -33 61 -142 95 -152 48z"/>
<path d="M2822 1446 c-16 -41 -27 -77 -24 -80 7 -8 56 -8 76 0 9 3 16 17 16
30 0 36 -21 124 -30 124 -4 0 -21 -33 -38 -74z"/>
<path d="M772 1485 c-64 -54 -101 -207 -65 -275 14 -28 25 -36 51 -38 85 -8
161 172 121 287 -19 55 -61 65 -107 26z"/>
<path d="M1318 775 c-10 -11 5 -55 19 -55 10 0 13 9 11 27 -3 25 -18 40 -30
28z"/>
<path d="M1574 826 c-8 -21 -1 -49 14 -54 8 -2 12 7 12 27 0 33 -17 51 -26 27z"/>
<path d="M1680 821 c0 -12 6 -21 16 -21 9 0 14 7 12 17 -5 25 -28 28 -28 4z"/>
<path d="M1172 788 c-27 -27 -6 -68 35 -68 31 0 52 42 33 65 -15 18 -51 20
-68 3z m44 -40 c16 -6 15 -7 -6 -5 -19 1 -26 8 -27 27 -2 21 -1 22 5 6 5 -11
17 -23 28 -28z"/>
<path d="M1160 575 c0 -34 1 -35 40 -35 38 0 40 1 40 32 0 27 -13 33 -16 7 -1
-5 -2 -13 -3 -19 -2 -15 -38 -12 -44 3 -7 19 4 34 28 40 13 3 9 5 -12 6 -31 1
-33 -1 -33 -34z"/>
<path d="M1187 584 c-8 -8 1 -24 14 -24 5 0 9 7 9 15 0 15 -12 20 -23 9z"/>
</g>
</svg>
